<svg xmlns="http://www.w3.org/2000/svg" width="32" height="32" viewBox="0 0 24 24"><path d="M8.355.008c.434 0 .829-.008 1.223.004.07.004.168.066.195.125.2.425 1.497 3.886 1.625 4.14.02.043.11.098.125.09.067-.047.145-.11.172-.18.188-.48 1.414-3.632 1.492-3.937.055-.207.157-.25.36-.25 1.45.012 9.336.016 9.336.016l.265.015h.02c-.113.387-.2.754-.328 1.102-.027.07-.223.105-.344.11-.66.007-6.613-.013-7.754-.036-.265-.004-.398.016-.512.32-.398 1.094-.855 2.168-1.289 3.25-.078.192-.175.461-.265.715.156.031 7.219.028 8.605.047.703.012 1.192.406 1.64.902.556.614.462 1.372.5 2.094.024.422.017 12.762-.015 13.375-.039.852-.816 1.77-1.652 1.965a5.182 5.182 0 01-1.152.125l-17.68-.012c-.969 0-1.852-.566-2.203-1.465-.114-.289-.145-.625-.145-.941A3538.72 3538.72 0 01.57 7.758c0-1.285 1.172-2.324 2.446-2.27.863.04 5.101.02 6.359.032.254 0 .504.011.754-.012.207-.02.14-.168.09-.293C10.05 4.785 8.383.14 8.355.008"/><path d="M14.836 9.363h4.238c0-.582.035-1.199.02-1.773-.008-.309.113-.274.508-.29.21-.007.691-.007.691-.007s.5-.012.781 0c.38.008.387.133.387.324-.016 1.348-.059 4.778-.063 5.59a.118.118 0 01-.12.117c-.516 0-1.024.008-1.528 0-.715-.015-.688.153-.676-.687.008-.453.004-.907.004-1.387h-4.23v2.082h-2.13c-.195 0-.218-.137-.218-.285.012-.793-.004-5.05 0-5.14.02-.7-.125-.645.625-.641.492 0 .988.011 1.484 0 .192-.004.235.07.23.246-.007.605-.003 1.207-.003 1.851m1.891 11.125v-.02c.554 0 1.109.024 1.664-.007.504-.027.808-.531.625-1.008-.059-.152-.188-.328-.328-.379a2.668 2.668 0 00-.805-.129c-.555-.02-1.11-.02-1.668 0-.344.008-.692.024-1.024.106-.425.101-.55.383-.48.902.05.34.27.524.672.535.449.008.894 0 1.344 0m-2.07-2.699c.355-.14.624-.25.94-.328.36-.086.739-.145 1.11-.145.895-.007 1.793-.023 2.68.059 1.101.105 1.691.531 1.8 1.79.051.616.067 1.253-.144 1.862-.172.504-.52.809-1.02.946-.878.242-1.777.218-2.675.218-.766 0-1.532.016-2.297-.03-.457-.024-1.035.015-1.477-.11-.66-.192-.906-.82-.972-1.485-.145-1.398-.18-2.8-.028-4.199.133-1.23.766-1.512 1.946-1.66.156-.016.312-.039.468-.055 1.598-.129 3.192-.148 4.782.047.421.055.855.153 1.156.524.336.418.316.906.3 1.39-.003.051-.066.149-.152.153-.562.011-1.226-.012-1.789-.024-.058 0-.152-.066-.172-.12-.086-.274-.312-.325-.539-.329-.914-.016-1.828-.023-2.742-.016-.258 0-.523.04-.762.125-.136.047-.3.203-.328.336-.074.36-.055.684-.086 1.051" fill="#fff"/><path d="M16.727 20.488c-.45 0-.895.008-1.344 0-.403-.011-.621-.195-.672-.535-.07-.52.055-.8.48-.902.332-.082.68-.098 1.024-.106.558-.02 1.113-.02 1.668 0 .27.008.55.04.805.13.14.05.269.226.328.378.183.477-.121.98-.625 1.008-.555.031-1.664.023-1.664.027"/><path d="M11.082 10.84c.031.71.156 1.394-.352 1.969-.304.347-.726.476-1.16.504a56.745 56.745 0 01-3.261.128c-.743.004-1.485-.062-2.227-.132-.977-.09-1.469-.649-1.477-1.668-.011-.91-.003-1.817.004-2.723.004-.531.188-.988.633-1.305.36-.258.91-.363 1.332-.383a69.73 69.73 0 013.36-.058c.62 0 1.246.066 1.855.187.68.13 1.094.57 1.149 1.29.019.257.046.664.039.921 0 .07-.11.051-.172.051-.672.016-1.371.008-1.985.012-.047 0-.05-.047-.05-.059.003-.601-.157-.629-.801-.648-.895-.031-1.79.004-2.684.02-.234.007-.418.16-.43.382-.039.64-.062 1.285-.043 1.93.008.27.29.441.672.453.856.02 1.711.027 2.567.02.203-.004.414-.043.605-.122.082-.03.153-.195.164-.296.024-.157.016-.422.016-.422v-.059h.238s1.403.008 2.008.008m-2.648 9.566c.5-.027.808-.531.625-1.008-.059-.152-.192-.332-.329-.378a2.674 2.674 0 00-.808-.13 26.378 26.378 0 00-1.664-.003c-.344.011-.696.027-1.028.11-.425.1-.55.382-.476.901.05.34.266.524.668.536.45.007 2.457 0 3.012-.028m-3.766-2.62c.36-.145.652-.302.973-.38.359-.09.738-.144 1.109-.144.89-.008 1.79-.024 2.676.058 1.105.106 1.691.532 1.8 1.79.055.617.07 1.253-.14 1.863-.176.504-.52.808-1.02.945-.879.242-1.78.219-2.675.219-.766 0-1.536.011-2.297-.032a6.227 6.227 0 01-1.364-.234c-.66-.191-1.02-.695-1.085-1.36-.145-1.398-.184-2.8-.032-4.198.133-1.231.766-1.512 1.946-1.66.16-.02.312-.044.472-.055 1.594-.13 3.192-.149 4.782.047.417.05.851.152 1.156.523.336.418.312.906.297 1.39 0 .047-.063.149-.153.153-.562.012-1.222-.016-1.785-.023-.058-.004-.156-.067-.172-.122-.09-.27-.312-.324-.543-.328-.914-.015-1.828-.023-2.742-.015-.254 0-.52.039-.762.12-.132.048-.296.208-.324.34-.074.36-.082.735-.117 1.102" fill="#fff"/></svg>